<?xml version="1.0" standalone="yes"?>
<svg xmlns="http://www.w3.org/2000/svg" width="512" height="512">
<path style="fill:none; stroke:none;" d="M0 0L0 1024L1024 1024L1024 0L0 0z"/>
<path style="fill:#ab8687; stroke:none;" d="M217 172L218 173L217 172z"/>
<path style="fill:#5a7272; stroke:none;" d="M218 172L219 173L218 172z"/>
<path style="fill:#063234; stroke:none;" d="M254 197L251.17 246L247.09 319L240.961 465L236 585C223.129 584.447 204.363 578.218 192.005 582.303C182.724 585.371 183.129 598.972 191.093 603.312C199.052 607.648 212.149 605.328 221 606.17C248.03 608.742 277.898 613.323 305 611.96C317.211 611.346 321.959 595.118 309.996 589.653C305.251 587.485 300.019 588.308 295 587.83C282.507 586.641 269.547 585.259 257 585L260.039 532L264.039 435L272.09 280L277 200C286.786 202.33 306.335 206.234 315.996 203.427C324.08 201.079 326.439 188.942 319.856 183.653C313.388 178.456 303.599 180.573 296 179.576C279.772 177.445 263.297 176.461 247 174.831C238.685 174 229.325 171.048 221 172.189C211.371 173.509 208.387 187.515 216.214 193.258C223.186 198.373 245.538 197.93 254 197z"/>
<path style="fill:#5a7272; stroke:none;" d="M229 172L230 173L229 172z"/>
<path style="fill:#ab8687; stroke:none;" d="M230 172L231 173L230 172z"/>
<path style="fill:#5a7272; stroke:none;" d="M235.667 173.333L236.333 173.667L235.667 173.333z"/>
<path style="fill:#ab8687; stroke:none;" d="M237 173L238 174L237 173z"/>
<path style="fill:#5a7272; stroke:none;" d="M214 174L215 175L214 174M244.667 174.333L245.333 174.667L244.667 174.333z"/>
<path style="fill:#ab8687; stroke:none;" d="M246.667 174.333L247.333 174.667L246.667 174.333z"/>
<path style="fill:#5a7272; stroke:none;" d="M254.667 175.333L255.333 175.667L254.667 175.333z"/>
<path style="fill:#ab8687; stroke:none;" d="M256 175L257 176L256 175z"/>
<path style="fill:#5a7272; stroke:none;" d="M264.667 176.333L265.333 176.667L264.667 176.333z"/>
<path style="fill:#ab8687; stroke:none;" d="M266.667 176.333L267.333 176.667L266.667 176.333z"/>
<path style="fill:#5a7272; stroke:none;" d="M212 177L213 178L212 177M273.667 177.333L274.333 177.667L273.667 177.333z"/>
<path style="fill:#ab8687; stroke:none;" d="M275 177L276 178L275 177z"/>
<path style="fill:#da7e81; stroke:none;" d="M460 177L454 178L454 179L456 179L456 180L446 180L436 186C433.384 185.617 432 185.286 432 188L429 190L426 189L423 191L423 194C418.37 194.979 413.976 201.771 412 206C408.613 206.699 408.446 208.712 408 212L406 210L405 215L398 224C398.983 226.95 399.487 227.622 397 227C397.452 233.84 393.865 241.48 390 247L387.674 266.17L387.455 295L393 329C395.436 329 394.615 329.786 394 332C396.436 332 395.615 332.786 395 335L397 334L397 335L396 338L398 343L400 342L399 345L400 348L404 356L406 356C405.697 358.444 405.563 359.028 408 359L407 362L409 361L408 364C411.031 364 411.072 366.277 411 369L422 381L421 384L424 384L425 390L428 394L432 399L436 404L438 407L454 424L453 427L457 432L463 439L468 445L469 446L471 445L474 452L478 457C482.001 458.135 483.601 460.98 484 465L485 466L488 465L489 471L495 478L501 485L508 493L511 497L516 503L519 503C518.928 505.923 519.108 506.687 522 507L524 513L529 515L528 518L531 518L534 525L537 529L541 534L546 540C550.333 538.192 553.608 536.738 555 532L558 530L563 527L561 528L561 527L567 522C570.617 521.476 573.262 520.796 574 517L580 516L580 513L582 514L582 512L589 509L589 506C592.844 505.836 594.201 504.333 596 501L602 499L607 495L608 494L616 488L621 484L622 483L631 474L629 477L636 472L641 468L644 466L671 440C674.576 439.415 676.47 437.61 677 434L691 425L692 424L695 421L704 410L709 405L713 402C715.826 402 715.791 400.858 716 398L726 391L727 390L733 383L732 380L736 379C735.47 376.351 735.572 375.393 738 376C737.47 373.351 737.572 372.393 740 373L739 370L743 369L742 366L744 367C743.396 363.374 747.559 355.39 750 356L752 353L752 352L750 353L750 352L756 344L761 331C759.863 327.59 760.067 323.267 763 324C762.581 321.903 762.916 311.229 766 312L767 308L766 298L767 298L767 301L768 301L767.186 271L759 236L749 222L750 219L745 212L727 195L722 191L712 188L713 186L710 187L708 186L697 180L674 177.451L654.17 178.274L637 182L632 184L624 191L611 198L609 202L610 200L609 200L603 206C602.202 210.335 599.683 214.469 595 215C593.368 219.896 587.008 230.752 584 230L583 236L581 235L579 238L580 242L576 243L573 254L571 253L566 265L567 268L564 263C560.501 263 560.697 258.878 561 256C558.564 256 559.385 255.214 560 253L558 254L558 253L558 248C554.437 248 554.388 243.909 555 241L549 229L547 229L546 223L544 220L542 217L541 216L539 217C538.243 212.112 535.39 209.126 531 207L526 199L525 198L515 190L502 183L499 182C495.251 183.25 485.193 181.228 486 178L460 177z"/>
<path style="fill:#ab8687; stroke:none;" d="M461 177L461 178L478 178L461 177M659 177L659 178L673 178L659 177M676 177L676 178L681 178L676 177z"/>
<path style="fill:#5a7272; stroke:none;" d="M284.667 178.333L285.333 178.667L284.667 178.333z"/>
<path style="fill:#ab8687; stroke:none;" d="M286.667 178.333L287.333 178.667L286.667 178.333M456 178L456 179L460 179L456 178M479.667 178.333L480.333 178.667L479.667 178.333z"/>
<path style="fill:#5a7272; stroke:none;" d="M295.667 179.333L296.333 179.667L295.667 179.333z"/>
<path style="fill:#ab8687; stroke:none;" d="M297 179L297 180L300 180L297 179M450 179L450 180L456 180L450 179M485 179L485 180L498 183L485 179z"/>
<path style="fill:#da7e81; stroke:none;" d="M489 179L490 180L489 179z"/>
<path style="fill:#ab8687; stroke:none;" d="M640 181L640 182L652 180L640 181M689 179L689 180L696 181L689 179z"/>
<path style="fill:#5a7272; stroke:none;" d="M311.667 180.333L312.333 180.667L311.667 180.333z"/>
<path style="fill:#ab8687; stroke:none;" d="M313 180L314 181L313 180M447 180L447 181L450 181L447 180M211 181L211 186L212 186L211 181z"/>
<path style="fill:#5a7272; stroke:none;" d="M316 181L317 182L316 181z"/>
<path style="fill:#ab8687; stroke:none;" d="M443 181L443 182L446 182L443 181M697 181L697 182L706 184L697 181z"/>
<path style="fill:#5a7272; stroke:none;" d="M318 182L319 183L318 182z"/>
<path style="fill:#ab8687; stroke:none;" d="M438 183L438 184L443 183L438 183M638.667 182.333L639.333 182.667L638.667 182.333M499.667 183.333L500.333 183.667L499.667 183.333M636 183L637 184L636 183M501 184L501 185L506 186L506 185L501 184M633 184L634 185L633 184M434.667 185.333L435.333 185.667L434.667 185.333M628 186L628 187L633 186L628 186M708 185L709 186L708 185M433 186L434 187L433 186M710 186L711 187L710 186M430.667 187.333L431.333 187.667L430.667 187.333M627 187L628 188L627 187M712.667 187.333L713.333 187.667L712.667 187.333z"/>
<path style="fill:#5a7272; stroke:none;" d="M212 188L213 189L212 188z"/>
<path style="fill:#ab8687; stroke:none;" d="M323 188L324 189L323 188M716 188L717 189L716 188z"/>
<path style="fill:#5a7272; stroke:none;" d="M323 189L324 190L323 189z"/>
<path style="fill:#ab8687; stroke:none;" d="M427.667 189.333L428.333 189.667L427.667 189.333M511.667 189.333L512.333 189.667L511.667 189.333M717 189L718 190L717 189M213 190L214 191L213 190M425.667 190.333L426.333 190.667L425.667 190.333M513 190L514 191L513 190M622.667 190.333L623.333 190.667L622.667 190.333M718.667 190.333L719.333 190.667L718.667 190.333M424 191L425 192L424 191M515 191L516 192L515 191M720 191L721 192L720 191M422 192L422 194L424 192L422 192M516 192L517 193L516 192M721.667 192.333L722.333 192.667L721.667 192.333M517 193L520 195L517 193M618 193L614 198L618 193M723 193L724 194L723 193z"/>
<path style="fill:#5a7272; stroke:none;" d="M217 194L218 195L217 194M323.333 194.667L323.667 195.333L323.333 194.667z"/>
<path style="fill:#ab8687; stroke:none;" d="M222 195L222 196L225 196L222 195z"/>
<path style="fill:#5a7272; stroke:none;" d="M225 195L225 196L228 196L225 195z"/>
<path style="fill:#ab8687; stroke:none;" d="M419 195L416 199L419 195M520 195L521 196L520 195M236 196L236 197L239 197L236 196z"/>
<path style="fill:#5a7272; stroke:none;" d="M239 196L239 197L242 197L239 196z"/>
<path style="fill:#ab8687; stroke:none;" d="M323 196L324 197L323 196M521 196L521 198L523 198L521 196z"/>
<path style="fill:#da7e81; stroke:none;" d="M522 196L523 197L522 196z"/>
<path style="fill:#ab8687; stroke:none;" d="M727 196L731 200L727 196z"/>
<path style="fill:#da7e81; stroke:none;" d="M728 196L729 197L728 196z"/>
<path style="fill:#ab8687; stroke:none;" d="M248.667 197.333L249.333 197.667L248.667 197.333z"/>
<path style="fill:#5a7272; stroke:none;" d="M250.667 197.333L251.333 197.667L250.667 197.333M253 197L254 198L253 197z"/>
<path style="fill:#da7e81; stroke:none;" d="M729 197L730 198L729 197z"/>
<path style="fill:#5a7272; stroke:none;" d="M254 198L254 202L255 202L254 198z"/>
<path style="fill:#ab8687; stroke:none;" d="M322 198L323 199L322 198M523 198L524 199L523 198M415 199L411 206L412 206L415 199M524 199L525 200L524 199M611 199L612 200L611 199z"/>
<path style="fill:#5a7272; stroke:none;" d="M277.667 200.333L278.333 200.667L277.667 200.333z"/>
<path style="fill:#ab8687; stroke:none;" d="M525 200L528 203L525 200M610 200L609 202L611 202L610 200M731 200L733 202L731 200M277 201L277 205L278 205L277 201M283 201L283 202L287 202L283 201z"/>
<path style="fill:#5a7272; stroke:none;" d="M287 201L287 202L291 202L287 201z"/>
<path style="fill:#ab8687; stroke:none;" d="M297 202L298 203L297 202z"/>
<path style="fill:#5a7272; stroke:none;" d="M298 202L298 203L301 203L298 202z"/>
<path style="fill:#ab8687; stroke:none;" d="M604 207L609 202L604 207M734 202L735 203L734 202M304.667 203.333L305.333 203.667L304.667 203.333z"/>
<path style="fill:#5a7272; stroke:none;" d="M306 203L307 204L306 203z"/>
<path style="fill:#ab8687; stroke:none;" d="M316 203L317 204L316 203M528 203L529 204L528 203M735 203L736 204L735 203M736 204L737 205L736 204M737 205L738 206L737 205M410 206L409 208L410 206M531 206L532 207L531 206M738 206L739 207L738 206M603 207L596 216C599.418 214.093 603.217 211.174 603 207M739 207L742 210L739 207M408 208L407 212L408 212L408 208M533 209L534 210L533 209M253 210L253 214L254 214L253 210M535 210L536 211L535 210z"/>
<path style="fill:#5a7272; stroke:none;" d="M276 211L276 214L277 214L276 211z"/>
<path style="fill:#ab8687; stroke:none;" d="M743.333 211.667L743.667 212.333L743.333 211.667M406 212L405 214L406 212M536 212L538 214L536 212M744 213L745 214L744 213z"/>
<path style="fill:#5a7272; stroke:none;" d="M253.333 214.667L253.667 215.333L253.333 214.667z"/>
<path style="fill:#ab8687; stroke:none;" d="M276.333 214.667L276.667 215.333L276.333 214.667M404 214L405 215L404 214M538 214L539 215L538 214M745 214L746 215L745 214M539.333 215.667L539.667 216.333L539.333 215.667M540 217L541 218L540 217M747 217L748 218L747 217M401.333 218.667L401.667 219.333L401.333 218.667M541 218L542 219L541 218M593 218L594 219L593 218M748 218L749 219L748 218M542 219L543 220L542 219M592.333 219.667L592.667 220.333L592.333 219.667M400 220L399 225L400 225L400 220M749.333 220.667L749.667 221.333L749.333 220.667M543 221L544 222L543 221z"/>
<path style="fill:#da7e81; stroke:none;" d="M590 221L591 222L590 221z"/>
<path style="fill:#ab8687; stroke:none;" d="M591 221L590 223L592 223L591 221z"/>
<path style="fill:#5a7272; stroke:none;" d="M275 222L275 226L276 226L275 222z"/>
<path style="fill:#ab8687; stroke:none;" d="M544.333 222.667L544.667 223.333L544.333 222.667M589.333 223.667L589.667 224.333L589.333 223.667M252.333 224.667L252.667 225.333L252.333 224.667M545 224L546 225L545 224M398 225L399 228L398 225M546 225L547 226L546 225M588 225L589 226L588 225M752 225L752 227L754 227L752 225z"/>
<path style="fill:#5a7272; stroke:none;" d="M252 226L252 229L253 229L252 226z"/>
<path style="fill:#ab8687; stroke:none;" d="M275 226L275 229L276 229L275 226M587 226L586 229L587 226M397 228L392 243L393 243L397 228M547 228L548 229L547 228M753 228L755 230L753 228M585.333 229.667L585.667 230.333L585.333 229.667M548 230L549 231L548 230M755 231L757 234L755 231M550 234L551 235L550 234M582.333 234.667L582.667 235.333L582.333 234.667M757 234L757 237L758 237L757 234M551 235L553 241L554 241L551 235M580 236L580 238L582 236L580 236z"/>
<path style="fill:#da7e81; stroke:none;" d="M393 237L394 238L393 237z"/>
<path style="fill:#ab8687; stroke:none;" d="M758 237L762 250L763 250L758 237M251 238L251 241L252 241L251 238z"/>
<path style="fill:#5a7272; stroke:none;" d="M274 238L274 241L275 241L274 238z"/>
<path style="fill:#ab8687; stroke:none;" d="M579 239L578 242L579 239z"/>
<path style="fill:#da7e81; stroke:none;" d="M759 239L760 240L759 239z"/>
<path style="fill:#5a7272; stroke:none;" d="M251 241L251 244L252 244L251 241z"/>
<path style="fill:#ab8687; stroke:none;" d="M274 241L274 246L275 246L274 241M554 242L556 249L557 249L554 242M577 242L578 243L577 242z"/>
<path style="fill:#da7e81; stroke:none;" d="M555 243L556 244L555 243z"/>
<path style="fill:#ab8687; stroke:none;" d="M576 244L574 249L576 244M391.333 245.667L391.667 246.333L391.333 245.667z"/>
<path style="fill:#da7e81; stroke:none;" d="M762 247L763 248L762 247z"/>
<path style="fill:#ab8687; stroke:none;" d="M390 248L389 257L390 257L390 248M557 249L558 250L557 249M558.333 252.667L558.667 253.333L558.333 252.667M572.333 252.667L572.667 253.333L572.333 252.667M763 252L763 255L764 255L763 252M250 253L250 256L251 256L250 253M559 254L559 257L560 257L559 254M571 254L570 258L571 258L571 254M764 255L766 270L767 270L764 255z"/>
<path style="fill:#5a7272; stroke:none;" d="M250 256L250 261L251 261L250 256z"/>
<path style="fill:#ab8687; stroke:none;" d="M560 257L562 264L563 264L560 257z"/>
<path style="fill:#5a7272; stroke:none;" d="M273 258L273 261L274 261L273 258z"/>
<path style="fill:#da7e81; stroke:none;" d="M562 260L563 261L562 260z"/>
<path style="fill:#ab8687; stroke:none;" d="M273 261L273 264L274 264L273 261M568 262L567 265L568 262M388 263L389 264L388 263M563.333 264.667L563.667 265.333L563.333 264.667M566.333 266.667L566.667 267.333L566.333 266.667M387 268L387 294L388 294L387 268M249 271L249 276L250 276L249 271M767 274L767 298L768 298L767 274z"/>
<path style="fill:#5a7272; stroke:none;" d="M249 276L249 279L250 279L249 276M272 276L272 279L273 279L272 276z"/>
<path style="fill:#ab8687; stroke:none;" d="M272 279L272 283L273 283L272 279M248 287L248 292L249 292L248 287z"/>
<path style="fill:#5a7272; stroke:none;" d="M248 292L248 296L249 296L248 292M271 293L271 298L272 298L271 293z"/>
<path style="fill:#ab8687; stroke:none;" d="M271 298L271 302L272 302L271 298M766 298L766 306L767 306L766 298M247 306L247 310L248 310L247 306M389 306L389 311L390 311L389 306M765 308L765 311L766 311L765 308z"/>
<path style="fill:#5a7272; stroke:none;" d="M247 310L247 316L248 316L247 310z"/>
<path style="fill:#ab8687; stroke:none;" d="M390 311L390 316L391 316L390 311M764 311L763 319L764 319L764 311z"/>
<path style="fill:#5a7272; stroke:none;" d="M270 314L270 318L271 318L270 314z"/>
<path style="fill:#ab8687; stroke:none;" d="M270 318L270 322L271 322L270 318M391 318L392 319L391 318M762 319L763 320L762 319M762 322L763 323L762 322M761 323L760 330L761 330L761 323M246 324L246 329L247 329L246 324M393.333 326.667L393.667 327.333L393.333 326.667z"/>
<path style="fill:#da7e81; stroke:none;" d="M761 327L762 328L761 327z"/>
<path style="fill:#ab8687; stroke:none;" d="M394 328L394 331L395 331L394 328z"/>
<path style="fill:#5a7272; stroke:none;" d="M246 329L246 334L247 334L246 329z"/>
<path style="fill:#ab8687; stroke:none;" d="M759 330L759 333L760 333L759 330z"/>
<path style="fill:#5a7272; stroke:none;" d="M269 331L269 336L270 336L269 331z"/>
<path style="fill:#ab8687; stroke:none;" d="M395 331L395 334L396 334L395 331M758.333 333.667L758.667 334.333L758.333 333.667M396.333 334.667L396.667 335.333L396.333 334.667M269 336L269 341L270 341L269 336M757 337L758 338L757 337M397.333 338.667L397.667 339.333L397.333 338.667M756 338L755 343L756 343L756 338M398 340L399 341L398 340M399.333 342.667L399.667 343.333L399.333 342.667M753 344L750 353L751 353L755 344L753 344M400.333 345.667L400.667 346.333L400.333 345.667M401 348L402 349L401 348M245 350L245 354L246 354L245 350z"/>
<path style="fill:#5a7272; stroke:none;" d="M268 351L268 356L269 356L268 351M245 354L245 359L246 359L245 354z"/>
<path style="fill:#ab8687; stroke:none;" d="M404 354L405 355L404 354M749 354L750 355L749 354M748 355L748 358L749 358L748 355M268.333 356.667L268.667 357.333L268.333 356.667M405 356L406 357L405 356M747 358L743 366L747 358M407.333 359.667L407.667 360.333L407.333 359.667M408.333 361.667L408.667 362.333L408.333 361.667M409.333 363.667L409.667 364.333L409.333 363.667M410 365L412 368L410 365M742.333 366.667L742.667 367.333L742.333 366.667M244 368L244 372L245 372L244 368M412 369L413 370L412 369M741 369L742 370L741 369z"/>
<path style="fill:#5a7272; stroke:none;" d="M267 370L267 374L268 374L267 370z"/>
<path style="fill:#ab8687; stroke:none;" d="M413 370L414 371L413 370M739 370L739 372L741 372L741 370L739 370M414.333 371.667L414.667 372.333L414.333 371.667z"/>
<path style="fill:#5a7272; stroke:none;" d="M244 372L244 377L245 377L244 372z"/>
<path style="fill:#ab8687; stroke:none;" d="M738.333 372.667L738.667 373.333L738.333 372.667M415 373L418 376L415 373M267 374L267 377L268 377L267 374M737 374L738 375L737 374M736.333 375.667L736.667 376.333L736.333 375.667M735 377L736 378L735 377M732 382L735 379L732 382M420 380L420 382L422 382L420 380M422.333 382.667L422.667 383.333L422.333 382.667M731.333 382.667L731.667 383.333L731.333 382.667M423 384L423 387L424 387L423 384M729 385L730 386L729 385z"/>
<path style="fill:#5a7272; stroke:none;" d="M266 386L266 392L267 392L266 386z"/>
<path style="fill:#ab8687; stroke:none;" d="M728 386L729 387L728 386M424 387L425 388L424 387M727 387L726 389L728 389L727 387M243 388L243 392L244 392L243 388M425 388L426 389L425 388M426 389L429 393L426 389M724 390L721 395L724 390z"/>
<path style="fill:#5a7272; stroke:none;" d="M243 392L243 396L244 396L243 392z"/>
<path style="fill:#ab8687; stroke:none;" d="M266 392L266 397L267 397L266 392M429 394L430 395L429 394M430 395L431 396L430 395M431 396L432 397L431 396M432 397L433 398L432 397M717 397L718 398L717 397M433 398L435 401L433 398M716.333 398.667L716.667 399.333L716.333 398.667M435 401L435 403L437 403L435 401M713 402L714 403L713 402M437.333 403.667L437.667 404.333L437.333 403.667M711 403L712 404L711 403M438 405L439 406L438 405M709 405L708 408L709 405M242 406L242 412L243 412L242 406M439.333 406.667L439.667 407.333L439.333 406.667z"/>
<path style="fill:#5a7272; stroke:none;" d="M265 407L265 413L266 413L265 407z"/>
<path style="fill:#ab8687; stroke:none;" d="M440 409L444 413L440 409M704.667 410.333L705.333 410.667L704.667 410.333M703 411L704 412L703 411z"/>
<path style="fill:#5a7272; stroke:none;" d="M242 412L242 418L243 418L242 412z"/>
<path style="fill:#ab8687; stroke:none;" d="M265 413L265 418L266 418L265 413M444 413L444 415L446 415L444 413M700 414L701 415L700 414M446 415L447 416L446 415M697 418L700 415L697 418M447 418L449 420L449 418L447 418M696 418L697 419L696 418M449 420L450 421L449 420M693 420L691 423L693 420M452 423L452 425L454 425L452 423M689 424L690 425L689 424M454 425L455 426L454 425M684 429L689 425L684 429M456 426L457 427L456 426M454 427L458 431L454 427M683 429L679 434L683 429M241 430L241 438L242 438L241 430z"/>
<path style="fill:#5a7272; stroke:none;" d="M264 430L264 435L265 435L264 430z"/>
<path style="fill:#ab8687; stroke:none;" d="M458 431L459 432L458 431M459 433L460 434L459 433M460 434L463 437L460 434M677.667 434.333L678.333 434.667L677.667 434.333M264 435L264 445L265 445L264 435M676 435L677 436L676 435M463 437L464 438L463 437M675 437L676 438L675 437z"/>
<path style="fill:#5a7272; stroke:none;" d="M241 438L241 442L242 442L241 438z"/>
<path style="fill:#ab8687; stroke:none;" d="M464 438L468 443L464 438M673 438L672 440L673 438M671 440L672 441L671 440M670 441L671 442L670 441M668 442L669 443L668 442M468 443L469 444L468 443M469 444L470 445L469 444M666 444L664 447L666 444M470 445L472 448L470 445M472 448L473 449L472 448M473 449L474 450L473 449M474 450L475 451L474 450M660.667 450.333L661.333 450.667L660.667 450.333M475 451L477 454L475 451M657 452L655 455L657 452M240 455L240 463L241 463L240 455M478 455L479 456L478 455M479 456L484 464L485 464L479 456z"/>
<path style="fill:#5a7272; stroke:none;" d="M263 458L263 463L264 463L263 458z"/>
<path style="fill:#ab8687; stroke:none;" d="M649 460L652 458L649 460z"/>
<path style="fill:#da7e81; stroke:none;" d="M481 460L482 461L481 460z"/>
<path style="fill:#ab8687; stroke:none;" d="M647 460L647 462L649 460L647 460z"/>
<path style="fill:#da7e81; stroke:none;" d="M482 461L483 462L482 461z"/>
<path style="fill:#ab8687; stroke:none;" d="M644 464L647 462L644 464z"/>
<path style="fill:#5a7272; stroke:none;" d="M240 463L240 470L241 470L240 463z"/>
<path style="fill:#ab8687; stroke:none;" d="M263 463L263 468L264 468L263 463M486 465L488 468L488 465L486 465M640.667 466.333L641.333 466.667L640.667 466.333z"/>
<path style="fill:#5a7272; stroke:none;" d="M639 467L640 468L639 467z"/>
<path style="fill:#ab8687; stroke:none;" d="M488 468L489 469L488 468M635 471L639 468L635 471M489 469L490 470L489 469M490 470L492 473L490 470M492 473L493 474L492 473M628 477L631 474L628 477M494 475L495 476L494 475M495 476L496 477L495 476M496 477L498 480L496 477M625 478L626 479L625 478M239 479L239 483L240 483L239 479M621 482L625 479L621 482z"/>
<path style="fill:#5a7272; stroke:none;" d="M262 480L262 484L263 484L262 480z"/>
<path style="fill:#ab8687; stroke:none;" d="M498 480L499 481L498 480M500 482L501 483L500 482M620 482L621 483L620 482z"/>
<path style="fill:#5a7272; stroke:none;" d="M239.333 483.667L239.667 484.333L239.333 483.667z"/>
<path style="fill:#ab8687; stroke:none;" d="M501 483L502 484L501 483M619 483L620 484L619 483M262 484L262 488L263 488L262 484M502 484L504 487L502 484M618 484L619 485L618 484M615 487L618 485L615 487M504 487L505 488L504 487M614 487L615 488L614 487M505 488L506 489L505 488M613 488L614 489L613 488M506 489L507 490L506 489M612 489L613 490L612 489M607 493L612 491L607 493z"/>
<path style="fill:#da7e81; stroke:none;" d="M610 491L611 492L610 491z"/>
<path style="fill:#ab8687; stroke:none;" d="M509 492L512 496L509 492M606 493L607 494L606 493M605 494L606 495L605 494M604 495L605 496L604 495M601 498L604 496L601 498M513 498L516 501L513 498M600 498L601 499L600 498M238 500L238 506L239 506L238 500z"/>
<path style="fill:#5a7272; stroke:none;" d="M261 501L261 508L262 508L261 501z"/>
<path style="fill:#ab8687; stroke:none;" d="M516 501L517 502L516 501M596 501L595 503L597 503L596 501M517 502L519 505L517 502M519 505L520 506L519 505z"/>
<path style="fill:#5a7272; stroke:none;" d="M238 506L238 514L239 514L238 506z"/>
<path style="fill:#ab8687; stroke:none;" d="M588 508L591 506L588 508M521.333 507.667L521.667 508.333L521.333 507.667M261 508L261 513L262 513L261 508M522 509L525 512L522 509M583 511L584 512L583 511M582 512L583 513L582 512M580 513L579 515L581 515L580 513M526 514L529 517L526 514M577 515L578 516L577 515M576 516L574 517L574 518L576 516M529 517L530 518L529 517M530.333 518.667L530.667 519.333L530.333 518.667M532 521L533 522L532 521M569 521L570 522L569 521M533 522L534 523L533 522M567.667 522.333L568.333 522.667L567.667 522.333M534 523L535 524L534 523M566 523L567 524L566 523M535.333 524.667L535.667 525.333L535.333 524.667M564 525L565 526L564 525M536 526L537 527L536 526M561 528L564 527L561 528M237 527L237 530L238 530L237 527z"/>
<path style="fill:#5a7272; stroke:none;" d="M260 527L260 533L261 533L260 527z"/>
<path style="fill:#ab8687; stroke:none;" d="M537 527L538 528L537 527M560 528L561 529L560 528M538 529L539 530L538 529z"/>
<path style="fill:#5a7272; stroke:none;" d="M237 530L237 537L238 537L237 530z"/>
<path style="fill:#ab8687; stroke:none;" d="M539 530L541 532L541 530L539 530M558 530L559 531L558 530M556 531L557 532L556 531M555.333 532.667L555.667 533.333L555.333 532.667M260 533L260 538L261 538L260 533M542 533L545 537L542 533M553 534L554 535L553 534M548 538L547 541L548 538z"/>
<path style="fill:#5a7272; stroke:none;" d="M259 547L259 552L260 552L259 547z"/>
<path style="fill:#ab8687; stroke:none;" d="M236 552L236 558L237 558L236 552M259 552L259 556L260 556L259 552z"/>
<path style="fill:#5a7272; stroke:none;" d="M236 558L236 562L237 562L236 558M258 568L258 575L259 575L258 568z"/>
<path style="fill:#ab8687; stroke:none;" d="M235 575L235 580L236 580L235 575M258 575L258 578L259 578L258 575M193 581L194 582L193 581z"/>
<path style="fill:#5a7272; stroke:none;" d="M194 581L195 582L194 581M196.667 581.333L197.333 581.667L196.667 581.333z"/>
<path style="fill:#ab8687; stroke:none;" d="M198.667 581.333L199.333 581.667L198.667 581.333M190 582L191 583L190 582z"/>
<path style="fill:#5a7272; stroke:none;" d="M207.667 582.333L208.333 582.667L207.667 582.333z"/>
<path style="fill:#ab8687; stroke:none;" d="M209 582L209 583L212 583L209 582z"/>
<path style="fill:#5a7272; stroke:none;" d="M218.667 583.333L219.333 583.667L218.667 583.333z"/>
<path style="fill:#ab8687; stroke:none;" d="M220.667 583.333L221.333 583.667L220.667 583.333z"/>
<path style="fill:#5a7272; stroke:none;" d="M257 583L258 584L257 583z"/>
<path style="fill:#ab8687; stroke:none;" d="M187 584L188 585L187 584z"/>
<path style="fill:#5a7272; stroke:none;" d="M230.667 584.333L231.333 584.667L230.667 584.333z"/>
<path style="fill:#ab8687; stroke:none;" d="M232.667 584.333L233.333 584.667L232.667 584.333M257 584L258 585L257 584z"/>
<path style="fill:#5a7272; stroke:none;" d="M263.667 585.333L264.333 585.667L263.667 585.333z"/>
<path style="fill:#ab8687; stroke:none;" d="M265.667 585.333L266.333 585.667L265.667 585.333z"/>
<path style="fill:#5a7272; stroke:none;" d="M274 586L274 587L278 587L274 586z"/>
<path style="fill:#ab8687; stroke:none;" d="M278.667 586.333L279.333 586.667L278.667 586.333z"/>
<path style="fill:#5a7272; stroke:none;" d="M292.667 587.333L293.333 587.667L292.667 587.333z"/>
<path style="fill:#ab8687; stroke:none;" d="M294.667 587.333L295.333 587.667L294.667 587.333z"/>
<path style="fill:#5a7272; stroke:none;" d="M185 588L186 589L185 588M306 588L307 589L306 588z"/>
<path style="fill:#ab8687; stroke:none;" d="M307 588L308 589L307 588z"/>
<path style="fill:#5a7272; stroke:none;" d="M186 595L187 596L186 595z"/>
<path style="fill:#ab8687; stroke:none;" d="M185 597L186 598L185 597M186 599L187 600L186 599M317 599L317 602L318 602L317 599z"/>
<path style="fill:#5a7272; stroke:none;" d="M187 600L188 601L187 600M189 602L190 603L189 602M190 603L191 604L190 603z"/>
<path style="fill:#ab8687; stroke:none;" d="M192 604L193 605L192 604z"/>
<path style="fill:#5a7272; stroke:none;" d="M193 604L194 605L193 604z"/>
<path style="fill:#ab8687; stroke:none;" d="M201 605L201 606L204 606L201 605z"/>
<path style="fill:#5a7272; stroke:none;" d="M204 605L204 606L208 606L204 605M314 605L315 606L314 605z"/>
<path style="fill:#ab8687; stroke:none;" d="M316 605L317 606L316 605M217 606L217 607L220 607L217 606z"/>
<path style="fill:#5a7272; stroke:none;" d="M220 606L220 607L224 607L220 606M315 606L316 607L315 606z"/>
<path style="fill:#ab8687; stroke:none;" d="M233 607L233 608L237 608L233 607z"/>
<path style="fill:#5a7272; stroke:none;" d="M237 607L237 608L241 608L237 607z"/>
<path style="fill:#ab8687; stroke:none;" d="M252 608L252 609L255 609L252 608z"/>
<path style="fill:#5a7272; stroke:none;" d="M255 608L256 609L255 608z"/>
<path style="fill:#ab8687; stroke:none;" d="M262 609L262 610L265 610L262 609z"/>
<path style="fill:#5a7272; stroke:none;" d="M265 609L265 610L268 610L265 609z"/>
<path style="fill:#ab8687; stroke:none;" d="M278 610L278 611L281 611L278 610z"/>
<path style="fill:#5a7272; stroke:none;" d="M281 610L281 611L284 611L281 610z"/>
<path style="fill:#ab8687; stroke:none;" d="M312 610L313 611L312 610z"/>
<path style="fill:#5a7272; stroke:none;" d="M701 610L702 611L701 610z"/>
<path style="fill:#063234; stroke:none;" d="M651 884C646.221 867.867 646.692 848.713 645.961 832C645.113 812.65 642.809 793.367 641.961 774C640.94 750.7 637.393 727.307 637.003 704C636.566 677.85 635.515 647.682 630.772 622.004C629.018 612.514 614.862 611.547 610.089 619.105C606.367 624.999 608.952 633.562 609.714 640C611.563 655.611 611.87 671.378 613.714 687C620.117 741.233 620.919 796.537 624.911 851C626.331 870.363 629.568 888.993 633.4 908C634.999 915.932 636.71 926.417 647 925.891C656.482 925.407 660.47 916.927 663.302 909C669.609 891.341 672.559 872.848 678.025 855C695.596 797.625 699.917 735.039 709.753 676C712.238 661.083 712.319 645.944 714.289 631C714.964 625.888 718.979 618.945 715.397 614.225C708.916 605.684 695.921 610.873 693.823 620C687.617 647.002 686.302 676.487 682.424 704C678.983 728.416 675.28 752.809 670.449 777C663.351 812.54 657.592 848.494 651 884z"/>
<path style="fill:#5a7272; stroke:none;" d="M709 610L710 611L709 610z"/>
<path style="fill:#ab8687; stroke:none;" d="M291.667 611.333L292.333 611.667L291.667 611.333z"/>
<path style="fill:#5a7272; stroke:none;" d="M293 611L293 612L296 612L293 611M309 611L310 612L309 611z"/>
<path style="fill:#ab8687; stroke:none;" d="M310 611L311 612L310 611M712 611L713 612L712 611z"/>
<path style="fill:#063234; stroke:none;" d="M439 818L438 818C423.196 770.302 414.752 724.056 411.965 674C411.344 662.866 415.643 629.722 395.005 637.742C389.913 639.721 387.889 644.877 388.104 650C388.635 662.663 390.654 675.308 390.985 688C391.957 725.207 396.24 767.699 408.495 803C413.779 818.219 419.896 835.55 438 838C438 868.373 435 898.702 435.002 929C435.002 938.524 442.619 951.659 453.772 943.911C459.95 939.618 457.997 926.491 458 920C458.008 898.802 459.111 877.211 460.039 856C462.722 794.744 467.218 733.24 469.014 672C469.424 658.023 471.505 643.921 472.83 630C473.337 624.672 474.03 617.378 468.891 614.089C451.55 602.991 451.183 626.907 450.05 637C446.43 669.245 446.076 701.875 442.285 734C439.009 761.768 442.506 790.258 439 818z"/>
<path style="fill:#5a7272; stroke:none;" d="M465 612L466 613L465 612z"/>
<path style="fill:#ab8687; stroke:none;" d="M466 612L467 613L466 612M550 612L551 613L550 612z"/>
<path style="fill:#5a7272; stroke:none;" d="M551 612L552 613L551 612z"/>
<path style="fill:#063234; stroke:none;" d="M552 612.454C529.893 615.437 524.55 648.3 520.127 666C505.901 722.917 505.633 787.338 514.576 845C517.64 864.758 525.899 909.039 554 904.787C574.621 901.667 582.718 865.781 586.424 849C599.259 790.891 602.408 730.921 593.728 672C590.835 652.36 579.459 608.75 552 612.454z"/>
<path style="fill:#5a7272; stroke:none;" d="M557 612L558 613L557 612M697 612L698 613L697 612z"/>
<path style="fill:#ab8687; stroke:none;" d="M714 612L715 613L714 612z"/>
<path style="fill:#5a7272; stroke:none;" d="M457 613L458 614L457 613z"/>
<path style="fill:#ab8687; stroke:none;" d="M468 613L469 614L468 613M546 613L547 614L546 613M560 613L561 614L560 613M619 613L620 614L619 613M693 613L694 614L693 613z"/>
<path style="fill:#5a7272; stroke:none;" d="M696 613L697 614L696 613M715 613L716 614L715 613M544 614L545 615L544 614M562 614L563 615L562 614z"/>
<path style="fill:#ab8687; stroke:none;" d="M615 614L616 615L615 614z"/>
<path style="fill:#5a7272; stroke:none;" d="M624 614L625 615L624 614z"/>
<path style="fill:#ab8687; stroke:none;" d="M695 614L696 615L695 614M716 614L717 615L716 614z"/>
<path style="fill:#5a7272; stroke:none;" d="M458 615L459 616L458 615z"/>
<path style="fill:#ab8687; stroke:none;" d="M542 615L543 616L542 615z"/>
<path style="fill:#5a7272; stroke:none;" d="M564 615L565 616L564 615M613 615L614 616L613 615z"/>
<path style="fill:#ab8687; stroke:none;" d="M626 615L627 616L626 615z"/>
<path style="fill:#5a7272; stroke:none;" d="M541 616L542 617L541 616z"/>
<path style="fill:#ab8687; stroke:none;" d="M566 616L567 617L566 616z"/>
<path style="fill:#5a7272; stroke:none;" d="M694 616L695 617L694 616z"/>
<path style="fill:#ab8687; stroke:none;" d="M717 616L718 617L717 616z"/>
<path style="fill:#5a7272; stroke:none;" d="M717.333 617.667L717.667 618.333L717.333 617.667M451 618L452 619L451 618z"/>
<path style="fill:#ab8687; stroke:none;" d="M609 619L610 620L609 619M630 619L631 620L630 619M693 619L694 620L693 619M717 619L718 620L717 619M537 620L538 621L537 620z"/>
<path style="fill:#5a7272; stroke:none;" d="M693.333 620.667L693.667 621.333L693.333 620.667z"/>
<path style="fill:#ab8687; stroke:none;" d="M473 621L473 625L474 625L473 621M572 621L573 622L572 621M450 622L450 629L451 629L450 622M573 622L574 623L573 622z"/>
<path style="fill:#5a7272; stroke:none;" d="M608 622L609 623L608 622z"/>
<path style="fill:#ab8687; stroke:none;" d="M716 622L717 623L716 622z"/>
<path style="fill:#5a7272; stroke:none;" d="M535 623L536 624L535 623z"/>
<path style="fill:#ab8687; stroke:none;" d="M574 623L575 624L574 623M631 623L632 624L631 623z"/>
<path style="fill:#5a7272; stroke:none;" d="M631 624L631 628L632 628L631 624M715 624L716 625L715 624M533 626L534 627L533 626M532 628L533 629L532 628z"/>
<path style="fill:#ab8687; stroke:none;" d="M578 628L579 629L578 628M631 628L631 634L632 634L631 628M692.333 628.667L692.667 629.333L692.333 628.667z"/>
<path style="fill:#5a7272; stroke:none;" d="M450 629L450 634L451 634L450 629M608.333 629.667L608.667 630.333L608.333 629.667M714 629L715 630L714 629M531 630L532 631L531 630M579 630L580 631L579 630M692.333 630.667L692.667 631.333L692.333 630.667z"/>
<path style="fill:#ab8687; stroke:none;" d="M714.333 630.667L714.667 631.333L714.333 630.667z"/>
<path style="fill:#5a7272; stroke:none;" d="M580 631L581 632L580 631z"/>
<path style="fill:#ab8687; stroke:none;" d="M608 631L609 632L608 631z"/>
<path style="fill:#5a7272; stroke:none;" d="M472.333 632.667L472.667 633.333L472.333 632.667z"/>
<path style="fill:#ab8687; stroke:none;" d="M530 632L531 633L530 632M472.333 634.667L472.667 635.333L472.333 634.667M529 634L530 635L529 634z"/>
<path style="fill:#5a7272; stroke:none;" d="M631 634L631 637L632 637L631 634M529 635L530 636L529 635M553 636L553 637L558 639L555 635L553 636z"/>
<path style="fill:#ab8687; stroke:none;" d="M397 636L398 637L397 636z"/>
<path style="fill:#5a7272; stroke:none;" d="M398 636L398 637L402 637L398 636z"/>
<path style="fill:#ab8687; stroke:none;" d="M554 636L553 638L554 636M583 636L584 637L583 636M691.333 636.667L691.667 637.333L691.333 636.667M394 637L395 638L394 637M405 637L406 638L405 637M528 637L529 638L528 637z"/>
<path style="fill:#ffffff; stroke:none;" d="M554 637C542.892 656.104 539.553 679.447 536.718 701C531.322 742.037 529.154 784.863 534.87 826C537.631 845.874 540.549 865.035 550 883L552 883C575.344 826.085 578.529 760.578 574.089 700C572.939 684.314 570.853 667.676 565 653C562.532 646.811 560.247 640.173 554 637z"/>
<path style="fill:#ab8687; stroke:none;" d="M449 638L450 639L449 638z"/>
<path style="fill:#5a7272; stroke:none;" d="M552 638L553 639L552 638M609.333 638.667L609.667 639.333L609.333 638.667M691.333 638.667L691.667 639.333L691.333 638.667M449 639L449 642L450 642L449 639z"/>
<path style="fill:#ab8687; stroke:none;" d="M552 639L553 640L552 639z"/>
<path style="fill:#5a7272; stroke:none;" d="M584 639L585 640L584 639M407 640L408 641L407 640z"/>
<path style="fill:#ab8687; stroke:none;" d="M527 640L528 641L527 640M558 640L559 641L558 640M609 640L610 641L609 640z"/>
<path style="fill:#5a7272; stroke:none;" d="M713 640L713 643L714 643L713 640M394 641L395 642L394 641z"/>
<path style="fill:#ab8687; stroke:none;" d="M551 641L552 642L551 641z"/>
<path style="fill:#5a7272; stroke:none;" d="M559 641L560 642L559 641z"/>
<path style="fill:#ab8687; stroke:none;" d="M410 642L411 643L410 642M526 642L527 643L526 642z"/>
<path style="fill:#5a7272; stroke:none;" d="M560 642L561 643L560 642z"/>
<path style="fill:#ab8687; stroke:none;" d="M388 643L389 644L388 643z"/>
<path style="fill:#5a7272; stroke:none;" d="M471.333 643.667L471.667 644.333L471.333 643.667M526 643L527 644L526 643M550 643L551 644L550 643z"/>
<path style="fill:#ab8687; stroke:none;" d="M586 643L587 644L586 643M632.333 643.667L632.667 644.333L632.333 643.667M690.333 643.667L690.667 644.333L690.333 643.667M713.333 643.667L713.667 644.333L713.333 643.667z"/>
<path style="fill:#5a7272; stroke:none;" d="M388 644L389 645L388 644M561 644L562 645L561 644M411 645L412 646L411 645z"/>
<path style="fill:#ab8687; stroke:none;" d="M471.333 645.667L471.667 646.333L471.333 645.667M587 645L588 646L587 645z"/>
<path style="fill:#5a7272; stroke:none;" d="M632.333 645.667L632.667 646.333L632.333 645.667M690.333 645.667L690.667 646.333L690.333 645.667z"/>
<path style="fill:#ab8687; stroke:none;" d="M448 646L448 649L449 649L448 646z"/>
<path style="fill:#5a7272; stroke:none;" d="M525 646L526 647L525 646z"/>
<path style="fill:#ab8687; stroke:none;" d="M549 646L550 647L549 646z"/>
<path style="fill:#5a7272; stroke:none;" d="M562 646L563 647L562 646M587 646L588 647L587 646M411 647L411 651L412 651L411 647z"/>
<path style="fill:#ab8687; stroke:none;" d="M548 648L549 649L548 648z"/>
<path style="fill:#5a7272; stroke:none;" d="M563 648L564 649L563 648z"/>
<path style="fill:#ab8687; stroke:none;" d="M588 648L589 649L588 648z"/>
<path style="fill:#5a7272; stroke:none;" d="M448 649L448 652L449 652L448 649M524 649L525 650L524 649z"/>
<path style="fill:#ab8687; stroke:none;" d="M563 649L564 650L563 649z"/>
<path style="fill:#5a7272; stroke:none;" d="M588 649L589 650L588 649M610 649L610 652L611 652L610 649M547 650L548 651L547 650z"/>
<path style="fill:#ab8687; stroke:none;" d="M411 651L412 652L411 651M564 651L565 652L564 651M589 651L590 652L589 651M523 652L524 653L523 652M610.333 652.667L610.667 653.333L610.333 652.667M689 652L690 653L689 652z"/>
<path style="fill:#5a7272; stroke:none;" d="M388.333 653.667L388.667 654.333L388.333 653.667M523 653L524 654L523 653M546 653L547 654L546 653M565 653L566 654L565 653z"/>
<path style="fill:#ab8687; stroke:none;" d="M633.333 653.667L633.667 654.333L633.333 653.667z"/>
<path style="fill:#5a7272; stroke:none;" d="M689.333 653.667L689.667 654.333L689.333 653.667M712.333 653.667L712.667 654.333L712.333 653.667M470 654L470 657L471 657L470 654z"/>
<path style="fill:#ab8687; stroke:none;" d="M546 654L547 655L546 654M565 654L566 655L565 654M590 654L591 655L590 654M388 655L388 658L389 658L388 655M522 655L523 656L522 655z"/>
<path style="fill:#5a7272; stroke:none;" d="M590 655L591 656L590 655M633 655L633 660L634 660L633 655z"/>
<path style="fill:#ab8687; stroke:none;" d="M712 655L713 656L712 655z"/>
<path style="fill:#5a7272; stroke:none;" d="M522 656L523 657L522 656z"/>
<path style="fill:#ab8687; stroke:none;" d="M566 656L567 657L566 656M470.333 657.667L470.667 658.333L470.333 657.667z"/>
<path style="fill:#5a7272; stroke:none;" d="M545 657L546 658L545 657z"/>
<path style="fill:#ab8687; stroke:none;" d="M447 658L447 661L448 661L447 658z"/>
<path style="fill:#5a7272; stroke:none;" d="M591.333 658.667L591.667 659.333L591.333 658.667z"/>
<path style="fill:#ab8687; stroke:none;" d="M688.333 658.667L688.667 659.333L688.333 658.667M521 659L522 660L521 659M567 659L568 660L567 659z"/>
<path style="fill:#5a7272; stroke:none;" d="M521 660L522 661L521 660M544 660L545 661L544 660M688.333 660.667L688.667 661.333L688.333 660.667M447 661L447 664L448 664L447 661z"/>
<path style="fill:#ab8687; stroke:none;" d="M544 661L545 662L544 661z"/>
<path style="fill:#5a7272; stroke:none;" d="M568 661L569 662L568 661M711.333 661.667L711.667 662.333L711.333 661.667M389 662L389 666L390 666L389 662z"/>
<path style="fill:#ab8687; stroke:none;" d="M568 662L569 663L568 662M592.333 662.667L592.667 663.333L592.333 662.667z"/>
<path style="fill:#5a7272; stroke:none;" d="M611 662L611 665L612 665L611 662z"/>
<path style="fill:#ab8687; stroke:none;" d="M520 663L521 664L520 663z"/>
<path style="fill:#5a7272; stroke:none;" d="M543 663L544 664L543 663z"/>
<path style="fill:#ab8687; stroke:none;" d="M711 663L711 666L712 666L711 663M411 664L411 668L412 668L411 664z"/>
<path style="fill:#5a7272; stroke:none;" d="M520 664L521 665L520 664z"/>
<path style="fill:#ab8687; stroke:none;" d="M543 664L544 665L543 664z"/>
<path style="fill:#5a7272; stroke:none;" d="M592 664L593 665L592 664z"/>
<path style="fill:#ab8687; stroke:none;" d="M611.333 665.667L611.667 666.333L611.333 665.667M389 666L389 671L390 671L389 666z"/>
<path style="fill:#5a7272; stroke:none;" d="M469 666L469 669L470 669L469 666z"/>
<path style="fill:#ab8687; stroke:none;" d="M569.333 666.667L569.667 667.333L569.333 666.667M634 666L634 669L635 669L634 666M687.333 666.667L687.667 667.333L687.333 666.667M519 667L520 668L519 667z"/>
<path style="fill:#5a7272; stroke:none;" d="M542 667L543 668L542 667M411.333 668.667L411.667 669.333L411.333 668.667z"/>
<path style="fill:#ab8687; stroke:none;" d="M446 668L446 671L447 671L446 668z"/>
<path style="fill:#5a7272; stroke:none;" d="M519 668L520 669L519 668z"/>
<path style="fill:#ab8687; stroke:none;" d="M542 668L543 669L542 668M593 668L594 669L593 668z"/>
<path style="fill:#5a7272; stroke:none;" d="M687.333 668.667L687.667 669.333L687.333 668.667z"/>
<path style="fill:#ab8687; stroke:none;" d="M469 669L469 672L470 672L469 669z"/>
<path style="fill:#5a7272; stroke:none;" d="M593.333 669.667L593.667 670.333L593.333 669.667M634.333 669.667L634.667 670.333L634.333 669.667M446 671L446 674L447 674L446 671z"/>
<path style="fill:#ab8687; stroke:none;" d="M518 671L519 672L518 671z"/>
<path style="fill:#5a7272; stroke:none;" d="M541 671L542 672L541 671M570 671L571 672L570 671M710 671L711 672L710 671M518 672L519 673L518 672z"/>
<path style="fill:#ab8687; stroke:none;" d="M570 672L571 673L570 672M710 672L711 673L710 672M686 673L687 674L686 673z"/>
<path style="fill:#5a7272; stroke:none;" d="M612.333 674.667L612.667 675.333L612.333 674.667M686.333 674.667L686.667 675.333L686.333 674.667M540 675L541 676L540 675z"/>
<path style="fill:#ab8687; stroke:none;" d="M594.333 675.667L594.667 676.333L594.333 675.667M412 676L412 679L413 679L412 676M517 676L518 677L517 676M540 676L541 677L540 676M612 676L612 679L613 679L612 676z"/>
<path style="fill:#5a7272; stroke:none;" d="M517.333 677.667L517.667 678.333L517.333 677.667M571 677L572 678L571 677M594 677L595 678L594 677M709 677L710 678L709 677z"/>
<path style="fill:#ab8687; stroke:none;" d="M571.333 678.667L571.667 679.333L571.333 678.667M709 678L710 679L709 678z"/>
<path style="fill:#5a7272; stroke:none;" d="M412.333 679.667L412.667 680.333L412.333 679.667z"/>
<path style="fill:#ab8687; stroke:none;" d="M445 679L445 682L446 682L445 679z"/>
<path style="fill:#5a7272; stroke:none;" d="M468 679L468 682L469 682L468 679M539 679L540 680L539 679z"/>
<path style="fill:#ab8687; stroke:none;" d="M635.333 679.667L635.667 680.333L635.333 679.667M685.333 679.667L685.667 680.333L685.333 679.667M539 680L540 681L539 680z"/>
<path style="fill:#5a7272; stroke:none;" d="M635 681L635 684L636 684L635 681M685 681L686 682L685 681M390 682L390 687L391 687L390 682M445 682L445 685L446 685L445 682z"/>
<path style="fill:#ab8687; stroke:none;" d="M468 682L468 685L469 685L468 682M516.333 682.667L516.667 683.333L516.333 682.667M595.333 683.667L595.667 684.333L595.333 683.667z"/>
<path style="fill:#5a7272; stroke:none;" d="M708.333 683.667L708.667 684.333L708.333 683.667M516 684L517 685L516 684M572 684L573 685L572 684M538 685L539 686L538 685z"/>
<path style="fill:#ab8687; stroke:none;" d="M572.333 685.667L572.667 686.333L572.333 685.667z"/>
<path style="fill:#5a7272; stroke:none;" d="M595 685L595 688L596 688L595 685M613.333 685.667L613.667 686.333L613.333 685.667z"/>
<path style="fill:#ab8687; stroke:none;" d="M708 685L709 686L708 685M538.333 686.667L538.667 687.333L538.333 686.667M684.333 686.667L684.667 687.333L684.333 686.667M390.333 687.667L390.667 688.333L390.333 687.667M613 687L613 690L614 690L613 687M413 688L413 691L414 691L413 688z"/>
<path style="fill:#5a7272; stroke:none;" d="M684.333 688.667L684.667 689.333L684.333 688.667z"/>
<path style="fill:#ab8687; stroke:none;" d="M515 689L516 690L515 689M444 690L444 694L445 694L444 690z"/>
<path style="fill:#5a7272; stroke:none;" d="M515.333 690.667L515.667 691.333L515.333 690.667M573.333 690.667L573.667 691.333L573.333 690.667M707.333 690.667L707.667 691.333L707.333 690.667M413 691L413 694L414 694L413 691M537.333 692.667L537.667 693.333L537.333 692.667z"/>
<path style="fill:#ab8687; stroke:none;" d="M573 692L574 693L573 692M596.333 692.667L596.667 693.333L596.333 692.667M636 692L636 695L637 695L636 692M707 692L708 693L707 692z"/>
<path style="fill:#5a7272; stroke:none;" d="M467 693L467 697L468 697L467 693z"/>
<path style="fill:#ab8687; stroke:none;" d="M683.333 693.667L683.667 694.333L683.333 693.667z"/>
<path style="fill:#5a7272; stroke:none;" d="M444 694L444 698L445 698L444 694z"/>
<path style="fill:#ab8687; stroke:none;" d="M537 694L538 695L537 694z"/>
<path style="fill:#5a7272; stroke:none;" d="M596.333 694.667L596.667 695.333L596.333 694.667z"/>
<path style="fill:#ab8687; stroke:none;" d="M514.333 695.667L514.667 696.333L514.333 695.667z"/>
<path style="fill:#5a7272; stroke:none;" d="M636.333 695.667L636.667 696.333L636.333 695.667M683.333 695.667L683.667 696.333L683.333 695.667M391.333 696.667L391.667 697.333L391.333 696.667z"/>
<path style="fill:#ab8687; stroke:none;" d="M467 697L467 700L468 700L467 697z"/>
<path style="fill:#5a7272; stroke:none;" d="M514.333 697.667L514.667 698.333L514.333 697.667M614 697L614 700L615 700L614 697M706.333 697.667L706.667 698.333L706.333 697.667z"/>
<path style="fill:#ab8687; stroke:none;" d="M391 698L391 702L392 702L391 698z"/>
<path style="fill:#5a7272; stroke:none;" d="M574 698L574 701L575 701L574 698z"/>
<path style="fill:#ab8687; stroke:none;" d="M706 699L707 700L706 699z"/>
<path style="fill:#5a7272; stroke:none;" d="M536.333 700.667L536.667 701.333L536.333 700.667z"/>
<path style="fill:#ab8687; stroke:none;" d="M614.333 700.667L614.667 701.333L614.333 700.667M682.333 700.667L682.667 701.333L682.333 700.667M414 701L414 704L415 704L414 701M574 701L574 704L575 704L574 701M536 702L537 703L536 702z"/>
<path style="fill:#5a7272; stroke:none;" d="M682.333 702.667L682.667 703.333L682.333 702.667z"/>
<path style="fill:#ab8687; stroke:none;" d="M513.333 703.667L513.667 704.333L513.333 703.667M597.333 703.667L597.667 704.333L597.333 703.667z"/>
<path style="fill:#5a7272; stroke:none;" d="M414.333 704.667L414.667 705.333L414.333 704.667M513 705L514 706L513 705M597 705L597 709L598 709L597 705z"/>
<path style="fill:#ab8687; stroke:none;" d="M637 705L637 708L638 708L637 705z"/>
<path style="fill:#5a7272; stroke:none;" d="M705 705L706 706L705 705z"/>
<path style="fill:#ab8687; stroke:none;" d="M705.333 706.667L705.667 707.333L705.333 706.667M443 708L443 711L444 711L443 708z"/>
<path style="fill:#5a7272; stroke:none;" d="M466.333 708.667L466.667 709.333L466.333 708.667M535 708L536 709L535 708M637 708L637 711L638 711L637 708z"/>
<path style="fill:#ab8687; stroke:none;" d="M681.333 708.667L681.667 709.333L681.333 708.667z"/>
<path style="fill:#5a7272; stroke:none;" d="M392 709L392 712L393 712L392 709z"/>
<path style="fill:#ab8687; stroke:none;" d="M535 709L536 710L535 709z"/>
<path style="fill:#5a7272; stroke:none;" d="M575 709L575 717L576 717L575 709z"/>
<path style="fill:#ab8687; stroke:none;" d="M466 710L466 713L467 713L466 710z"/>
<path style="fill:#5a7272; stroke:none;" d="M615.333 710.667L615.667 711.333L615.333 710.667M681.333 710.667L681.667 711.333L681.333 710.667M443 711L443 716L444 716L443 711z"/>
<path style="fill:#ab8687; stroke:none;" d="M512 711L512 714L513 714L512 711M392.333 712.667L392.667 713.333L392.333 712.667M415.333 712.667L415.667 713.333L415.333 712.667M615.333 712.667L615.667 713.333L615.333 712.667z"/>
<path style="fill:#5a7272; stroke:none;" d="M704 712L705 713L704 712z"/>
<path style="fill:#ab8687; stroke:none;" d="M704 713L704 716L705 716L704 713z"/>
<path style="fill:#5a7272; stroke:none;" d="M415 714L415 717L416 717L415 714M512.333 714.667L512.667 715.333L512.333 714.667z"/>
<path style="fill:#ab8687; stroke:none;" d="M680.333 715.667L680.667 716.333L680.333 715.667z"/>
<path style="fill:#5a7272; stroke:none;" d="M534.333 716.667L534.667 717.333L534.333 716.667z"/>
<path style="fill:#ab8687; stroke:none;" d="M575 717L575 722L576 722L575 717M638 717L638 720L639 720L638 717z"/>
<path style="fill:#5a7272; stroke:none;" d="M680 717L681 718L680 717z"/>
<path style="fill:#ab8687; stroke:none;" d="M534.333 718.667L534.667 719.333L534.333 718.667z"/>
<path style="fill:#5a7272; stroke:none;" d="M703.333 718.667L703.667 719.333L703.333 718.667z"/>
<path style="fill:#ab8687; stroke:none;" d="M598 719L598 723L599 723L598 719z"/>
<path style="fill:#5a7272; stroke:none;" d="M393.333 720.667L393.667 721.333L393.333 720.667M638.333 720.667L638.667 721.333L638.333 720.667z"/>
<path style="fill:#ab8687; stroke:none;" d="M703 720L704 721L703 720M511.333 721.667L511.667 722.333L511.333 721.667M393.333 722.667L393.667 723.333L393.333 722.667z"/>
<path style="fill:#5a7272; stroke:none;" d="M465 722L465 725L466 725L465 722z"/>
<path style="fill:#ab8687; stroke:none;" d="M679 722L680 723L679 722M416.333 723.667L416.667 724.333L416.333 723.667z"/>
<path style="fill:#5a7272; stroke:none;" d="M511 723L511 726L512 726L511 723M598 723L598 730L599 730L598 723M679.333 723.667L679.667 724.333L679.333 723.667M416.333 725.667L416.667 726.333L416.333 725.667z"/>
<path style="fill:#ab8687; stroke:none;" d="M442 725L442 728L443 728L442 725M465 725L465 728L466 728L465 725z"/>
<path style="fill:#5a7272; stroke:none;" d="M616 725L616 728L617 728L616 725M702 725L703 726L702 725M533.333 726.667L533.667 727.333L533.333 726.667z"/>
<path style="fill:#ab8687; stroke:none;" d="M702 726L703 727L702 726M678.333 727.667L678.667 728.333L678.333 727.667z"/>
<path style="fill:#5a7272; stroke:none;" d="M442 728L442 733L443 733L442 728z"/>
<path style="fill:#ab8687; stroke:none;" d="M533.333 728.667L533.667 729.333L533.333 728.667M616 728L616 731L617 731L616 728z"/>
<path style="fill:#5a7272; stroke:none;" d="M394 729L394 732L395 732L394 729M678 729L679 730L678 729M701 730L702 731L701 730z"/>
<path style="fill:#ab8687; stroke:none;" d="M701.333 731.667L701.667 732.333L701.333 731.667M394 732L395 733L394 732M639.333 732.667L639.667 733.333L639.333 732.667M510 733L510 736L511 736L510 733M417.333 734.667L417.667 735.333L417.333 734.667z"/>
<path style="fill:#5a7272; stroke:none;" d="M639 734L639 738L640 738L639 734z"/>
<path style="fill:#ab8687; stroke:none;" d="M677 734L678 735L677 734z"/>
<path style="fill:#5a7272; stroke:none;" d="M677 735L677 738L678 738L677 735M417 736L418 737L417 736M510 736L510 742L511 742L510 736M700 736L701 737L700 736z"/>
<path style="fill:#ab8687; stroke:none;" d="M700 737L701 738L700 737z"/>
<path style="fill:#5a7272; stroke:none;" d="M395.333 738.667L395.667 739.333L395.333 738.667M464 738L464 741L465 741L464 738z"/>
<path style="fill:#ab8687; stroke:none;" d="M395 740L396 741L395 740z"/>
<path style="fill:#5a7272; stroke:none;" d="M532 740L532 744L533 744L532 740M617 740L617 744L618 744L617 740z"/>
<path style="fill:#ab8687; stroke:none;" d="M676.333 740.667L676.667 741.333L676.333 740.667M464 741L464 744L465 744L464 741z"/>
<path style="fill:#5a7272; stroke:none;" d="M699.333 741.667L699.667 742.333L699.333 741.667z"/>
<path style="fill:#ab8687; stroke:none;" d="M418 742L419 743L418 742z"/>
<path style="fill:#5a7272; stroke:none;" d="M676.333 742.667L676.667 743.333L676.333 742.667M418 743L419 744L418 743z"/>
<path style="fill:#ab8687; stroke:none;" d="M699 743L700 744L699 743M441 744L441 749L442 749L441 744M532 744L532 748L533 748L532 744M617 744L617 748L618 748L617 744z"/>
<path style="fill:#5a7272; stroke:none;" d="M396 745L397 746L396 745z"/>
<path style="fill:#ab8687; stroke:none;" d="M396.333 746.667L396.667 747.333L396.333 746.667M419 747L420 748L419 747M640 747L640 750L641 750L640 747M675.333 747.667L675.667 748.333L675.333 747.667z"/>
<path style="fill:#5a7272; stroke:none;" d="M419 748L420 749L419 748M441 749L441 754L442 754L441 749M675 749L676 750L675 749M698 749L699 750L698 749M397.333 750.667L397.667 751.333L397.333 750.667z"/>
<path style="fill:#ab8687; stroke:none;" d="M509 750L509 758L510 758L509 750z"/>
<path style="fill:#5a7272; stroke:none;" d="M640 750L640 753L641 753L640 750z"/>
<path style="fill:#ab8687; stroke:none;" d="M698 750L699 751L698 750M397 752L398 753L397 752M420.333 752.667L420.667 753.333L420.333 752.667M674 753L675 754L674 753z"/>
<path style="fill:#5a7272; stroke:none;" d="M420 754L421 755L420 754M674.333 754.667L674.667 755.333L674.333 754.667M697 755L698 756L697 755M398.333 756.667L398.667 757.333L398.333 756.667z"/>
<path style="fill:#ab8687; stroke:none;" d="M575 756L575 762L576 762L575 756z"/>
<path style="fill:#5a7272; stroke:none;" d="M598 756L598 759L599 759L598 756z"/>
<path style="fill:#ab8687; stroke:none;" d="M697.333 756.667L697.667 757.333L697.333 756.667z"/>
<path style="fill:#5a7272; stroke:none;" d="M463 757L463 762L464 762L463 757M618 757L618 762L619 762L618 757z"/>
<path style="fill:#ab8687; stroke:none;" d="M398 758L399 759L398 758M421 758L422 759L421 758z"/>
<path style="fill:#5a7272; stroke:none;" d="M509 758L509 762L510 762L509 758M421 759L422 760L421 759z"/>
<path style="fill:#ab8687; stroke:none;" d="M598 759L598 764L599 764L598 759M673 759L674 760L673 759z"/>
<path style="fill:#5a7272; stroke:none;" d="M673.333 760.667L673.667 761.333L673.333 760.667M399.333 762.667L399.667 763.333L399.333 762.667z"/>
<path style="fill:#ab8687; stroke:none;" d="M463 762L463 768L464 768L463 762z"/>
<path style="fill:#5a7272; stroke:none;" d="M575 762L575 766L576 766L575 762z"/>
<path style="fill:#ab8687; stroke:none;" d="M618 762L618 765L619 765L618 762z"/>
<path style="fill:#5a7272; stroke:none;" d="M696 762L697 763L696 762z"/>
<path style="fill:#ab8687; stroke:none;" d="M422 763L423 764L422 763M696 763L697 764L696 763M399 764L400 765L399 764M641.333 764.667L641.667 765.333L641.333 764.667M672.333 764.667L672.667 765.333L672.333 764.667z"/>
<path style="fill:#5a7272; stroke:none;" d="M531 765L531 785L532 785L531 765z"/>
<path style="fill:#ab8687; stroke:none;" d="M440 766L440 774L441 774L440 766z"/>
<path style="fill:#5a7272; stroke:none;" d="M641 766L641 770L642 770L641 766M672 766L673 767L672 766M400.333 767.667L400.667 768.333L400.333 767.667z"/>
<path style="fill:#ab8687; stroke:none;" d="M423 767L424 768L423 767z"/>
<path style="fill:#5a7272; stroke:none;" d="M695 767L696 768L695 767M423 768L424 769L423 768z"/>
<path style="fill:#ab8687; stroke:none;" d="M695 768L696 769L695 768M400 769L401 770L400 769M671.333 770.667L671.667 771.333L671.333 770.667M424 772L425 773L424 772z"/>
<path style="fill:#5a7272; stroke:none;" d="M597.333 772.667L597.667 773.333L597.333 772.667M671 772L672 773L671 772M694 772L695 773L694 772M401 773L402 774L401 773M424 773L425 774L424 773z"/>
<path style="fill:#ab8687; stroke:none;" d="M574 773L574 776L575 776L574 773M694 773L695 774L694 773M401.333 774.667L401.667 775.333L401.333 774.667z"/>
<path style="fill:#5a7272; stroke:none;" d="M440 774L440 784L441 784L440 774z"/>
<path style="fill:#ab8687; stroke:none;" d="M597.333 774.667L597.667 775.333L597.333 774.667z"/>
<path style="fill:#5a7272; stroke:none;" d="M619 775L619 778L620 778L619 775z"/>
<path style="fill:#ab8687; stroke:none;" d="M670 775L671 776L670 775M425.333 776.667L425.667 777.333L425.333 776.667z"/>
<path style="fill:#5a7272; stroke:none;" d="M574 776L574 779L575 779L574 776M670 776L671 777L670 776M693 776L694 777L693 776z"/>
<path style="fill:#ab8687; stroke:none;" d="M693 777L694 778L693 777z"/>
<path style="fill:#5a7272; stroke:none;" d="M425 778L426 779L425 778z"/>
<path style="fill:#ab8687; stroke:none;" d="M619 778L619 781L620 781L619 778z"/>
<path style="fill:#5a7272; stroke:none;" d="M402 779L403 780L402 779z"/>
<path style="fill:#ab8687; stroke:none;" d="M402 780L403 781L402 780M642 780L642 783L643 783L642 780M669 780L670 781L669 780M426 781L427 782L426 781z"/>
<path style="fill:#5a7272; stroke:none;" d="M669.333 781.667L669.667 782.333L669.333 781.667M692 781L693 782L692 781M426 782L427 783L426 782z"/>
<path style="fill:#ab8687; stroke:none;" d="M692.333 782.667L692.667 783.333L692.333 782.667z"/>
<path style="fill:#5a7272; stroke:none;" d="M596.333 783.667L596.667 784.333L596.333 783.667M642 783L642 788L643 788L642 783M403.333 784.667L403.667 785.333L403.333 784.667z"/>
<path style="fill:#ab8687; stroke:none;" d="M573 785L573 788L574 788L573 785M596.333 785.667L596.667 786.333L596.333 785.667z"/>
<path style="fill:#5a7272; stroke:none;" d="M427.333 786.667L427.667 787.333L427.333 786.667M462 786L462 793L463 793L462 786z"/>
<path style="fill:#ab8687; stroke:none;" d="M668 786L669 787L668 786z"/>
<path style="fill:#5a7272; stroke:none;" d="M668 787L669 788L668 787M691 787L692 788L691 787M573.333 788.667L573.667 789.333L573.333 788.667z"/>
<path style="fill:#ab8687; stroke:none;" d="M691 788L692 789L691 788z"/>
<path style="fill:#5a7272; stroke:none;" d="M404 789L405 790L404 789z"/>
<path style="fill:#ab8687; stroke:none;" d="M428 789L429 790L428 789z"/>
<path style="fill:#5a7272; stroke:none;" d="M509 789L509 794L510 794L509 789M620.333 789.667L620.667 790.333L620.333 789.667z"/>
<path style="fill:#ab8687; stroke:none;" d="M404 790L405 791L404 790z"/>
<path style="fill:#5a7272; stroke:none;" d="M428 790L429 791L428 790M595 791L595 794L596 794L595 791z"/>
<path style="fill:#ab8687; stroke:none;" d="M620 791L620 794L621 794L620 791M667 791L668 792L667 791M429 792L430 793L429 792z"/>
<path style="fill:#5a7272; stroke:none;" d="M667.333 792.667L667.667 793.333L667.333 792.667M429 793L430 794L429 793z"/>
<path style="fill:#ab8687; stroke:none;" d="M462 793L462 800L463 800L462 793M405 794L406 795L405 794M509 794L509 797L510 797L509 794M595 794L596 795L595 794z"/>
<path style="fill:#5a7272; stroke:none;" d="M690 794L691 795L690 794z"/>
<path style="fill:#ab8687; stroke:none;" d="M572.333 795.667L572.667 796.333L572.333 795.667M690 795L691 796L690 795M430 796L431 797L430 796M643 796L643 799L644 799L643 796M666.333 796.667L666.667 797.333L666.333 796.667M406 797L407 798L406 797z"/>
<path style="fill:#5a7272; stroke:none;" d="M430 797L431 798L430 797M572.333 797.667L572.667 798.333L572.333 797.667M666 798L667 799L666 798z"/>
<path style="fill:#ab8687; stroke:none;" d="M431 799L432 800L431 799M532 799L532 804L533 804L532 799z"/>
<path style="fill:#5a7272; stroke:none;" d="M643 799L643 802L644 802L643 799z"/>
<path style="fill:#ab8687; stroke:none;" d="M407 800L408 801L407 800z"/>
<path style="fill:#5a7272; stroke:none;" d="M431 800L432 801L431 800z"/>
<path style="fill:#ab8687; stroke:none;" d="M439 800L439 803L440 803L439 800z"/>
<path style="fill:#5a7272; stroke:none;" d="M689 800L690 801L689 800z"/>
<path style="fill:#ab8687; stroke:none;" d="M689 801L690 802L689 801z"/>
<path style="fill:#5a7272; stroke:none;" d="M408 802L409 803L408 802M594 802L595 803L594 802M621 802L621 806L622 806L621 802z"/>
<path style="fill:#ab8687; stroke:none;" d="M665 802L666 803L665 802M408 803L409 804L408 803M432 803L433 804L432 803M594.333 803.667L594.667 804.333L594.333 803.667z"/>
<path style="fill:#5a7272; stroke:none;" d="M665.333 803.667L665.667 804.333L665.333 803.667M532 804L532 807L533 807L532 804z"/>
<path style="fill:#ab8687; stroke:none;" d="M571 804L572 805L571 804z"/>
<path style="fill:#5a7272; stroke:none;" d="M571 805L571 808L572 808L571 805z"/>
<path style="fill:#ab8687; stroke:none;" d="M409 806L410 807L409 806M433 806L434 807L433 806z"/>
<path style="fill:#5a7272; stroke:none;" d="M510 806L510 810L511 810L510 806z"/>
<path style="fill:#ab8687; stroke:none;" d="M621 806L621 809L622 809L621 806z"/>
<path style="fill:#5a7272; stroke:none;" d="M688 806L689 807L688 806M433 807L434 808L433 807z"/>
<path style="fill:#ab8687; stroke:none;" d="M439 807L439 810L440 810L439 807M664 807L665 808L664 807M688 807L689 808L688 807z"/>
<path style="fill:#5a7272; stroke:none;" d="M410 808L411 809L410 808M664.333 808.667L664.667 809.333L664.333 808.667z"/>
<path style="fill:#ab8687; stroke:none;" d="M410 809L411 810L410 809M434 809L435 810L434 809M644 809L644 812L645 812L644 809z"/>
<path style="fill:#5a7272; stroke:none;" d="M439 810L439 815L440 815L439 810z"/>
<path style="fill:#ab8687; stroke:none;" d="M510 810L510 813L511 813L510 810M570.333 810.667L570.667 811.333L570.333 810.667z"/>
<path style="fill:#5a7272; stroke:none;" d="M411 811L412 812L411 811z"/>
<path style="fill:#ab8687; stroke:none;" d="M435 811L436 812L435 811z"/>
<path style="fill:#5a7272; stroke:none;" d="M593 811L594 812L593 811z"/>
<path style="fill:#ab8687; stroke:none;" d="M411 812L412 813L411 812z"/>
<path style="fill:#5a7272; stroke:none;" d="M435 812L436 813L435 812M570.333 812.667L570.667 813.333L570.333 812.667z"/>
<path style="fill:#ab8687; stroke:none;" d="M593 812L594 813L593 812z"/>
<path style="fill:#5a7272; stroke:none;" d="M644 812L644 815L645 815L644 812M687 812L688 813L687 812z"/>
<path style="fill:#ab8687; stroke:none;" d="M663.333 813.667L663.667 814.333L663.333 813.667M687 813L688 814L687 813z"/>
<path style="fill:#5a7272; stroke:none;" d="M412 814L413 815L412 814z"/>
<path style="fill:#ab8687; stroke:none;" d="M533 814L534 815L533 814M437 815L438 816L437 815z"/>
<path style="fill:#5a7272; stroke:none;" d="M533.333 815.667L533.667 816.333L533.333 815.667M622 815L622 818L623 818L622 815M663 815L664 816L663 815M413 816L414 817L413 816M686.333 816.667L686.667 817.333L686.333 816.667z"/>
<path style="fill:#ab8687; stroke:none;" d="M413 817L414 818L413 817z"/>
<path style="fill:#5a7272; stroke:none;" d="M438 817L439 818L438 817M414 818L415 819L414 818z"/>
<path style="fill:#ab8687; stroke:none;" d="M569 818L570 819L569 818z"/>
<path style="fill:#5a7272; stroke:none;" d="M592.333 818.667L592.667 819.333L592.333 818.667z"/>
<path style="fill:#ab8687; stroke:none;" d="M622 818L622 822L623 822L622 818M414 819L415 820L414 819z"/>
<path style="fill:#5a7272; stroke:none;" d="M511.333 819.667L511.667 820.333L511.333 819.667M569.333 819.667L569.667 820.333L569.333 819.667z"/>
<path style="fill:#ab8687; stroke:none;" d="M662 819L663 820L662 819z"/>
<path style="fill:#5a7272; stroke:none;" d="M415 820L416 821L415 820M662 820L663 821L662 820z"/>
<path style="fill:#ab8687; stroke:none;" d="M415 821L416 822L415 821z"/>
<path style="fill:#5a7272; stroke:none;" d="M461 821L461 829L462 829L461 821z"/>
<path style="fill:#ab8687; stroke:none;" d="M511.333 821.667L511.667 822.333L511.333 821.667z"/>
<path style="fill:#5a7272; stroke:none;" d="M685 821L686 822L685 821M416 822L417 823L416 822z"/>
<path style="fill:#ab8687; stroke:none;" d="M534 823L535 824L534 823M645.333 823.667L645.667 824.333L645.333 823.667M417 824L418 825L417 824z"/>
<path style="fill:#5a7272; stroke:none;" d="M534.333 824.667L534.667 825.333L534.333 824.667z"/>
<path style="fill:#ab8687; stroke:none;" d="M568 824L569 825L568 824z"/>
<path style="fill:#5a7272; stroke:none;" d="M591 824L592 825L591 824M418 825L419 826L418 825M568 825L569 826L568 825z"/>
<path style="fill:#ab8687; stroke:none;" d="M591 825L592 826L591 825z"/>
<path style="fill:#5a7272; stroke:none;" d="M645 825L645 828L646 828L645 825z"/>
<path style="fill:#ab8687; stroke:none;" d="M661 825L662 826L661 825z"/>
<path style="fill:#5a7272; stroke:none;" d="M684 825L685 826L684 825M661 826L662 827L661 826z"/>
<path style="fill:#ab8687; stroke:none;" d="M419 827L420 828L419 827M420 828L421 829L420 828z"/>
<path style="fill:#5a7272; stroke:none;" d="M421 829L422 830L421 829z"/>
<path style="fill:#ab8687; stroke:none;" d="M461 829L461 836L462 836L461 829z"/>
<path style="fill:#5a7272; stroke:none;" d="M623 829L623 834L624 834L623 829M683 829L684 830L683 829M512 830L513 831L512 830z"/>
<path style="fill:#ab8687; stroke:none;" d="M535.333 830.667L535.667 831.333L535.333 830.667M567 830L568 831L567 830M590 830L591 831L590 830M660 830L661 831L660 830M683 830L684 831L683 830z"/>
<path style="fill:#5a7272; stroke:none;" d="M425 831L426 832L425 831z"/>
<path style="fill:#ab8687; stroke:none;" d="M512.333 831.667L512.667 832.333L512.333 831.667z"/>
<path style="fill:#5a7272; stroke:none;" d="M567 831L568 832L567 831M660 831L661 832L660 831M424 832L425 833L424 832M535 832L536 833L535 832M425 833L426 834L425 833z"/>
<path style="fill:#ab8687; stroke:none;" d="M566.333 834.667L566.667 835.333L566.333 834.667z"/>
<path style="fill:#5a7272; stroke:none;" d="M589 834L590 835L589 834z"/>
<path style="fill:#ab8687; stroke:none;" d="M623 834L623 837L624 837L623 834z"/>
<path style="fill:#5a7272; stroke:none;" d="M428 835L429 836L428 835M432 835L433 836L432 835z"/>
<path style="fill:#ab8687; stroke:none;" d="M589 835L590 836L589 835z"/>
<path style="fill:#5a7272; stroke:none;" d="M682 835L683 836L682 835z"/>
<path style="fill:#ab8687; stroke:none;" d="M430 836L431 837L430 836z"/>
<path style="fill:#5a7272; stroke:none;" d="M566 836L567 837L566 836z"/>
<path style="fill:#ab8687; stroke:none;" d="M659 836L660 837L659 836M682 836L683 837L682 836M433 837L434 838L433 837z"/>
<path style="fill:#5a7272; stroke:none;" d="M434 837L435 838L434 837z"/>
<path style="fill:#ab8687; stroke:none;" d="M646.333 837.667L646.667 838.333L646.333 837.667z"/>
<path style="fill:#5a7272; stroke:none;" d="M513.333 838.667L513.667 839.333L513.333 838.667z"/>
<path style="fill:#ab8687; stroke:none;" d="M536 838L537 839L536 838z"/>
<path style="fill:#5a7272; stroke:none;" d="M536 839L537 840L536 839M588 839L589 840L588 839M646 839L646 845L647 845L646 839z"/>
<path style="fill:#ab8687; stroke:none;" d="M513 840L514 841L513 840M565 840L566 841L565 840M588 840L589 841L588 840M658 840L659 841L658 840z"/>
<path style="fill:#5a7272; stroke:none;" d="M681.333 840.667L681.667 841.333L681.333 840.667M565 841L566 842L565 841M658 841L659 842L658 841M514.333 844.667L514.667 845.333L514.333 844.667z"/>
<path style="fill:#ab8687; stroke:none;" d="M537 844L538 845L537 844M564 844L565 845L564 844M587 844L588 845L587 844z"/>
<path style="fill:#5a7272; stroke:none;" d="M537.333 845.667L537.667 846.333L537.333 845.667M564 845L565 846L564 845z"/>
<path style="fill:#ab8687; stroke:none;" d="M514 846L515 847L514 846z"/>
<path style="fill:#5a7272; stroke:none;" d="M657 846L658 847L657 846z"/>
<path style="fill:#ab8687; stroke:none;" d="M680 846L681 847L680 846z"/>
<path style="fill:#5a7272; stroke:none;" d="M624 847L624 851L625 851L624 847z"/>
<path style="fill:#ab8687; stroke:none;" d="M563 848L564 849L563 848z"/>
<path style="fill:#5a7272; stroke:none;" d="M586 848L587 849L586 848M563 849L564 850L563 849z"/>
<path style="fill:#ab8687; stroke:none;" d="M586 849L587 850L586 849M538 850L539 851L538 850M656 850L657 851L656 850M679 850L680 851L679 850z"/>
<path style="fill:#5a7272; stroke:none;" d="M460 851L460 856L461 856L460 851M515 851L516 852L515 851M538 851L539 852L538 851z"/>
<path style="fill:#ab8687; stroke:none;" d="M562 851L563 852L562 851M624.333 851.667L624.667 852.333L624.333 851.667z"/>
<path style="fill:#5a7272; stroke:none;" d="M656 851L657 852L656 851z"/>
<path style="fill:#ab8687; stroke:none;" d="M515 852L516 853L515 852z"/>
<path style="fill:#5a7272; stroke:none;" d="M562 852L563 853L562 852z"/>
<path style="fill:#ab8687; stroke:none;" d="M585 853L586 854L585 853z"/>
<path style="fill:#5a7272; stroke:none;" d="M678 853L679 854L678 853z"/>
<path style="fill:#ab8687; stroke:none;" d="M539 854L540 855L539 854M647.333 854.667L647.667 855.333L647.333 854.667M437 855L437 861L438 861L437 855z"/>
<path style="fill:#5a7272; stroke:none;" d="M539 855L540 856L539 855z"/>
<path style="fill:#ab8687; stroke:none;" d="M561 855L562 856L561 855M655 855L656 856L655 855M460 856L460 868L461 868L460 856z"/>
<path style="fill:#5a7272; stroke:none;" d="M516 856L517 857L516 856M561 856L562 857L561 856M647.333 856.667L647.667 857.333L647.333 856.667M655 856L656 857L655 856M677 856L678 857L677 856z"/>
<path style="fill:#ab8687; stroke:none;" d="M516 857L517 858L516 857z"/>
<path style="fill:#5a7272; stroke:none;" d="M584 857L585 858L584 857z"/>
<path style="fill:#ab8687; stroke:none;" d="M677 857L678 858L677 857M540 858L541 859L540 858M560 858L561 859L560 858z"/>
<path style="fill:#5a7272; stroke:none;" d="M625 858L625 861L626 861L625 858M540 859L541 860L540 859M560 859L561 860L560 859z"/>
<path style="fill:#ab8687; stroke:none;" d="M654 859L655 860L654 859z"/>
<path style="fill:#5a7272; stroke:none;" d="M517 860L518 861L517 860M583 860L584 861L583 860M654 860L655 861L654 860M676 860L677 861L676 860M437 861L437 866L438 866L437 861z"/>
<path style="fill:#ab8687; stroke:none;" d="M517 861L518 862L517 861M625.333 861.667L625.667 862.333L625.333 861.667M676 861L677 862L676 861z"/>
<path style="fill:#5a7272; stroke:none;" d="M541 862L542 863L541 862z"/>
<path style="fill:#ab8687; stroke:none;" d="M559 862L560 863L559 862z"/>
<path style="fill:#5a7272; stroke:none;" d="M559 863L560 864L559 863M582 863L583 864L582 863z"/>
<path style="fill:#ab8687; stroke:none;" d="M653 863L654 864L653 863z"/>
<path style="fill:#5a7272; stroke:none;" d="M518 864L519 865L518 864z"/>
<path style="fill:#ab8687; stroke:none;" d="M582 864L583 865L582 864M648.333 864.667L648.667 865.333L648.333 864.667z"/>
<path style="fill:#5a7272; stroke:none;" d="M653 864L654 865L653 864M675 864L676 865L675 864z"/>
<path style="fill:#ab8687; stroke:none;" d="M542 865L543 866L542 865M558 865L559 866L558 865M581 866L582 867L581 866z"/>
<path style="fill:#5a7272; stroke:none;" d="M648.333 866.667L648.667 867.333L648.333 866.667M519 867L520 868L519 867z"/>
<path style="fill:#ab8687; stroke:none;" d="M652 867L653 868L652 867M519 868L520 869L519 868M543 868L544 869L543 868M557 868L558 869L557 868z"/>
<path style="fill:#5a7272; stroke:none;" d="M626.333 868.667L626.667 869.333L626.333 868.667M652.333 868.667L652.667 869.333L652.333 868.667M520.333 869.667L520.667 870.333L520.333 869.667M543 869L544 870L543 869M557 869L558 870L557 869z"/>
<path style="fill:#ab8687; stroke:none;" d="M580 869L581 870L580 869M674 869L675 870L674 869M626.333 870.667L626.667 871.333L626.333 870.667M520 871L521 872L520 871M544 871L545 872L544 871M556 871L557 872L556 871z"/>
<path style="fill:#5a7272; stroke:none;" d="M579 871L580 872L579 871M556 872L557 873L556 872z"/>
<path style="fill:#ab8687; stroke:none;" d="M649 872L650 873L649 872M651.333 872.667L651.667 873.333L651.333 872.667z"/>
<path style="fill:#5a7272; stroke:none;" d="M521 873L522 874L521 873M649.333 873.667L649.667 874.333L649.333 873.667M673 873L674 874L673 873z"/>
<path style="fill:#ab8687; stroke:none;" d="M545 874L546 875L545 874M555 874L556 875L555 874M578 874L579 875L578 874z"/>
<path style="fill:#5a7272; stroke:none;" d="M651 874L651 882L652 882L651 874z"/>
<path style="fill:#ab8687; stroke:none;" d="M673 874L674 875L673 874z"/>
<path style="fill:#5a7272; stroke:none;" d="M522 876L523 877L522 876z"/>
<path style="fill:#ab8687; stroke:none;" d="M546 876L547 877L546 876M522 877L523 878L522 877z"/>
<path style="fill:#5a7272; stroke:none;" d="M554 877L555 878L554 877z"/>
<path style="fill:#ab8687; stroke:none;" d="M577 877L578 878L577 877z"/>
<path style="fill:#5a7272; stroke:none;" d="M627.333 877.667L627.667 878.333L627.333 877.667z"/>
<path style="fill:#ab8687; stroke:none;" d="M547 878L548 879L547 878z"/>
<path style="fill:#5a7272; stroke:none;" d="M672 878L673 879L672 878M523 879L524 880L523 879z"/>
<path style="fill:#ab8687; stroke:none;" d="M553 879L554 880L553 879M627 879L628 880L627 879M672 879L673 880L672 879M523 880L524 881L523 880z"/>
<path style="fill:#5a7272; stroke:none;" d="M548 880L549 881L548 880M553 880L554 881L553 880z"/>
<path style="fill:#ab8687; stroke:none;" d="M576 880L577 881L576 880M549 881L550 882L549 881M552 881L553 882L552 881z"/>
<path style="fill:#5a7272; stroke:none;" d="M459 882L459 892L460 892L459 882z"/>
<path style="fill:#ab8687; stroke:none;" d="M524 882L525 883L524 882z"/>
<path style="fill:#5a7272; stroke:none;" d="M575 882L576 883L575 882z"/>
<path style="fill:#ab8687; stroke:none;" d="M650 882L651 883L650 882M671 882L672 883L671 882M436 883L436 892L437 892L436 883z"/>
<path style="fill:#5a7272; stroke:none;" d="M525 883L526 884L525 883M550 883L552 885L550 883z"/>
<path style="fill:#ab8687; stroke:none;" d="M551 883L552 884L551 883z"/>
<path style="fill:#5a7272; stroke:none;" d="M628 883L629 884L628 883M650 883L651 884L650 883z"/>
<path style="fill:#ab8687; stroke:none;" d="M525 884L526 885L525 884z"/>
<path style="fill:#5a7272; stroke:none;" d="M574 884L575 885L574 884z"/>
<path style="fill:#ab8687; stroke:none;" d="M628.333 884.667L628.667 885.333L628.333 884.667z"/>
<path style="fill:#5a7272; stroke:none;" d="M670 885L671 886L670 885z"/>
<path style="fill:#ab8687; stroke:none;" d="M526 886L527 887L526 886z"/>
<path style="fill:#5a7272; stroke:none;" d="M573 886L574 887L573 886z"/>
<path style="fill:#ab8687; stroke:none;" d="M670 886L671 887L670 886M527 888L528 889L527 888z"/>
<path style="fill:#5a7272; stroke:none;" d="M572 888L573 889L572 888M669 888L670 889L669 888M528 889L529 890L528 889M629 889L630 890L629 889z"/>
<path style="fill:#ab8687; stroke:none;" d="M528 890L529 891L528 890M629.333 890.667L629.667 891.333L629.333 890.667M529 891L530 892L529 891z"/>
<path style="fill:#5a7272; stroke:none;" d="M570 891L571 892L570 891M668 891L669 892L668 891M436 892L436 898L437 898L436 892z"/>
<path style="fill:#ab8687; stroke:none;" d="M459 892L459 898L460 898L459 892M668 892L669 893L668 892M530 893L531 894L530 893z"/>
<path style="fill:#5a7272; stroke:none;" d="M569 893L570 894L569 893M531 894L532 895L531 894M667 894L668 895L667 894M532 895L533 896L532 895M630 895L631 896L630 895z"/>
<path style="fill:#ab8687; stroke:none;" d="M667 895L668 896L667 895z"/>
<path style="fill:#5a7272; stroke:none;" d="M535 896L536 897L535 896z"/>
<path style="fill:#ab8687; stroke:none;" d="M630 896L631 897L630 896M533 897L534 898L533 897M534 898L535 899L534 898M565 898L566 899L565 898M666 898L667 899L666 898M535 899L536 900L535 899z"/>
<path style="fill:#5a7272; stroke:none;" d="M538 899L539 900L538 899z"/>
<path style="fill:#ab8687; stroke:none;" d="M564 899L565 900L564 899z"/>
<path style="fill:#5a7272; stroke:none;" d="M631 899L632 900L631 899M537 900L538 901L537 900z"/>
<path style="fill:#ab8687; stroke:none;" d="M563 900L564 901L563 900M631 900L632 901L631 900M538 901L539 902L538 901z"/>
<path style="fill:#5a7272; stroke:none;" d="M665 901L666 902L665 901M540 902L541 903L540 902M560 902L561 903L560 902z"/>
<path style="fill:#ab8687; stroke:none;" d="M542 903L543 904L542 903z"/>
<path style="fill:#5a7272; stroke:none;" d="M558 903L559 904L558 903M632 903L633 904L632 903z"/>
<path style="fill:#ab8687; stroke:none;" d="M544 904L545 905L544 904z"/>
<path style="fill:#5a7272; stroke:none;" d="M545 904L546 905L545 904z"/>
<path style="fill:#ab8687; stroke:none;" d="M556 904L557 905L556 904M632 904L633 905L632 904M549 905L549 906L552 906L549 905M664 905L665 906L664 905z"/>
<path style="fill:#5a7272; stroke:none;" d="M633.333 908.667L633.667 909.333L633.333 908.667z"/>
<path style="fill:#ab8687; stroke:none;" d="M663 908L664 909L663 908z"/>
<path style="fill:#5a7272; stroke:none;" d="M458 910L458 919L459 919L458 910z"/>
<path style="fill:#ab8687; stroke:none;" d="M633 910L634 911L633 910M662 911L663 912L662 911M435 912L435 918L436 918L435 912z"/>
<path style="fill:#5a7272; stroke:none;" d="M634.333 913.667L634.667 914.333L634.333 913.667M661 913L662 914L661 913M660 915L661 916L660 915z"/>
<path style="fill:#ab8687; stroke:none;" d="M660 916L661 917L660 916z"/>
<path style="fill:#5a7272; stroke:none;" d="M635 917L636 918L635 917M659 917L660 918L659 917M435 918L435 922L436 922L435 918z"/>
<path style="fill:#ab8687; stroke:none;" d="M635 918L636 919L635 918M458 919L458 925L459 925L458 919z"/>
<path style="fill:#5a7272; stroke:none;" d="M636 919L637 920L636 919M658 919L659 920L658 919z"/>
<path style="fill:#ab8687; stroke:none;" d="M636 920L637 921L636 920M657 921L658 922L657 921M656 922L657 923L656 922M638 923L639 924L638 923z"/>
<path style="fill:#5a7272; stroke:none;" d="M640 923L641 924L640 923M655 923L656 924L655 923M653 924L654 925L653 924z"/>
<path style="fill:#ab8687; stroke:none;" d="M654 924L655 925L654 924z"/>
<path style="fill:#5a7272; stroke:none;" d="M641 925L642 926L641 925M650.667 925.333L651.333 925.667L650.667 925.333z"/>
<path style="fill:#ab8687; stroke:none;" d="M652 925L653 926L652 925z"/>
<path style="fill:#5a7272; stroke:none;" d="M457 935L458 936L457 935M435 936L436 937L435 936z"/>
<path style="fill:#ab8687; stroke:none;" d="M457.333 936.667L457.667 937.333L457.333 936.667M435 937L436 938L435 937z"/>
<path style="fill:#5a7272; stroke:none;" d="M436 939L437 940L436 939z"/>
<path style="fill:#ab8687; stroke:none;" d="M437 941L438 942L437 941z"/>
<path style="fill:#5a7272; stroke:none;" d="M440 941L441 942L440 941z"/>
<path style="fill:#ab8687; stroke:none;" d="M456 941L457 942L456 941z"/>
<path style="fill:#5a7272; stroke:none;" d="M438 942L439 943L438 942M439 943L440 944L439 943M441 944L442 945L441 944M453 944L454 945L453 944M443 945L444 946L443 945M450 945L451 946L450 945z"/>
<path style="fill:#ab8687; stroke:none;" d="M451 945L452 946L451 945z"/>
</svg>
